<svg width="194" height="63" viewBox="0 0 194 63" fill="none" xmlns="http://www.w3.org/2000/svg">
<rect width="62.8617" height="62.8617" rx="31.4308" fill="#0D1633"/>
<path fill-rule="evenodd" clip-rule="evenodd" d="M18.3974 15.2269C19.6324 14.2297 21.7681 14.3613 22.7849 15.5771C24.5248 17.6472 26.2249 19.7469 27.9492 21.8274C30.1542 24.5165 32.3965 27.1802 34.5755 29.8869C30.7865 34.3822 27.0494 38.9133 23.282 43.4237C22.7035 44.085 22.2098 44.8301 21.4642 45.3478C20.7609 45.8361 19.8134 45.9892 18.9621 45.8081C18.1419 45.6215 17.4248 45.0639 17.1183 44.3339C16.9156 43.9079 16.9191 43.4349 16.9537 42.9802C17.0594 42.3268 17.4396 41.7437 17.8752 41.2315C21.1628 37.4822 24.4374 33.7232 27.7284 29.9755C26.9611 29.0453 26.1366 28.1518 25.3476 27.236C23.0889 24.6665 20.8389 22.0906 18.5854 19.5171C18.1108 18.9922 17.6803 18.4051 17.508 17.731C17.2932 16.8311 17.6388 15.8324 18.3974 15.2269Z" fill="#3C71FF"/>
<path fill-rule="evenodd" clip-rule="evenodd" d="M40.9238 15.0785C41.5629 14.6429 42.3926 14.5049 43.1721 14.5926C44.1152 14.7386 44.9709 15.3537 45.2983 16.1889C45.6802 17.1263 45.3598 18.1896 44.6946 18.9475C42.0687 21.9797 39.4151 24.9911 36.8005 28.0305C36.6602 27.9452 36.5805 27.8032 36.4748 27.6883C35.4373 26.4382 34.3755 25.2041 33.3518 23.9453C35.4061 21.4819 37.4474 19.0097 39.4965 16.5423C39.9347 16.0262 40.3297 15.4582 40.9238 15.0785Z" fill="#3C71FF"/>
<path fill-rule="evenodd" clip-rule="evenodd" d="M36.4894 32.0575C36.5907 31.9498 36.6557 31.8038 36.7986 31.736C39.4513 34.8105 42.1275 37.869 44.7906 40.9355C45.2297 41.4277 45.6532 41.9582 45.8368 42.5821C46.0897 43.442 45.8342 44.4177 45.1639 45.0646C44.0051 46.1982 41.7706 46.1671 40.6829 44.9593C39.9225 44.1121 39.2244 43.2187 38.4874 42.3539C36.7371 40.2319 34.9452 38.1371 33.2122 36.0039C34.3147 34.6956 35.3956 33.3714 36.4894 32.0575Z" fill="#3C71FF"/>
<path d="M71.4133 44.1501V17.2275H77.4004V44.1501H71.4133ZM88.0779 44.1501V17.2275H94.1031V44.1501H88.0779ZM74.9979 32.9006V27.7143H90.0609V32.9006H74.9979ZM107.887 44.5696C105.879 44.5696 104.087 44.1629 102.51 43.3493C100.96 42.5104 99.7394 41.3536 98.8496 39.8791C97.9598 38.4046 97.5149 36.7394 97.5149 34.8836C97.5149 33.0277 97.9471 31.3752 98.8115 29.9261C99.7013 28.4516 100.896 27.2949 102.396 26.4559C103.896 25.617 105.587 25.1975 107.468 25.1975C109.298 25.1975 110.913 25.5915 112.311 26.3797C113.709 27.1678 114.802 28.2609 115.59 29.6592C116.404 31.0574 116.811 32.6591 116.811 34.4641C116.811 34.7946 116.785 35.1505 116.735 35.5318C116.709 35.8878 116.646 36.3072 116.544 36.7903L100.566 36.8284V32.8243L114.065 32.7862L111.548 34.4641C111.523 33.3963 111.358 32.5192 111.053 31.8328C110.747 31.121 110.29 30.5871 109.68 30.2312C109.095 29.8499 108.37 29.6592 107.506 29.6592C106.591 29.6592 105.79 29.8753 105.104 30.3075C104.443 30.7142 103.921 31.299 103.54 32.0616C103.184 32.8243 103.006 33.7522 103.006 34.8454C103.006 35.9386 103.197 36.8792 103.578 37.6673C103.985 38.43 104.544 39.0275 105.256 39.4597C105.993 39.8664 106.858 40.0698 107.849 40.0698C108.764 40.0698 109.591 39.9173 110.328 39.6122C111.065 39.2817 111.714 38.7987 112.273 38.1631L115.476 41.3664C114.561 42.4341 113.455 43.2349 112.158 43.7688C110.862 44.3027 109.438 44.5696 107.887 44.5696ZM130.621 44.1501L126.16 36.9428L124.901 36.142L117.618 25.617H124.444L128.6 32.3667L129.82 33.1294L137.371 44.1501H130.621ZM117.274 44.1501L124.863 33.3582L128.181 37.0953L123.643 44.1501H117.274ZM129.782 36.1038L126.465 32.3667L130.659 25.617H136.99L129.782 36.1038ZM139.588 44.1501V16.4648H145.422V44.1501H139.588ZM157.272 44.5315C155.569 44.5315 154.044 44.112 152.696 43.2731C151.374 42.4341 150.319 41.2901 149.531 39.841C148.768 38.3919 148.387 36.7394 148.387 34.8836C148.387 33.0277 148.768 31.3752 149.531 29.9261C150.319 28.477 151.374 27.333 152.696 26.4941C154.044 25.6551 155.569 25.2356 157.272 25.2356C158.518 25.2356 159.637 25.4771 160.628 25.9602C161.645 26.4432 162.471 27.1169 163.107 27.9813C163.742 28.8202 164.098 29.7863 164.175 30.8795V38.8876C164.098 39.9808 163.742 40.9596 163.107 41.824C162.497 42.6629 161.683 43.3239 160.666 43.8069C159.649 44.29 158.518 44.5315 157.272 44.5315ZM158.454 39.269C159.7 39.269 160.704 38.8622 161.467 38.0487C162.23 37.2097 162.611 36.1547 162.611 34.8836C162.611 34.0192 162.433 33.2565 162.077 32.5955C161.747 31.9345 161.264 31.4261 160.628 31.0701C160.018 30.6888 159.306 30.4981 158.493 30.4981C157.679 30.4981 156.954 30.6888 156.319 31.0701C155.709 31.4261 155.213 31.9345 154.832 32.5955C154.476 33.2565 154.298 34.0192 154.298 34.8836C154.298 35.7225 154.476 36.4725 154.832 37.1335C155.188 37.7945 155.683 38.3156 156.319 38.697C156.954 39.0783 157.666 39.269 158.454 39.269ZM162.382 44.1501V39.1546L163.259 34.6548L162.382 30.1549V25.617H168.102V44.1501H162.382ZM182.888 44.5315C181.642 44.5315 180.498 44.2773 179.456 43.7688C178.414 43.2349 177.562 42.5358 176.901 41.6714C176.24 40.7816 175.859 39.7901 175.757 38.697V30.8795C175.859 29.7863 176.24 28.8202 176.901 27.9813C177.562 27.1169 178.414 26.4432 179.456 25.9602C180.498 25.4771 181.642 25.2356 182.888 25.2356C184.642 25.2356 186.193 25.6551 187.54 26.4941C188.913 27.333 189.981 28.477 190.744 29.9261C191.532 31.3752 191.926 33.0277 191.926 34.8836C191.926 36.7394 191.532 38.3919 190.744 39.841C189.981 41.2901 188.913 42.4341 187.54 43.2731C186.193 44.112 184.642 44.5315 182.888 44.5315ZM181.858 39.269C182.672 39.269 183.384 39.0783 183.994 38.697C184.629 38.3156 185.125 37.7945 185.481 37.1335C185.837 36.4725 186.015 35.7225 186.015 34.8836C186.015 34.0192 185.837 33.2565 185.481 32.5955C185.125 31.9345 184.629 31.4261 183.994 31.0701C183.384 30.6888 182.672 30.4981 181.858 30.4981C181.045 30.4981 180.32 30.6888 179.685 31.0701C179.049 31.4261 178.553 31.9345 178.197 32.5955C177.867 33.2565 177.702 34.0192 177.702 34.8836C177.702 35.7479 177.88 36.5106 178.236 37.1716C178.592 37.8326 179.075 38.3538 179.685 38.7351C180.32 39.091 181.045 39.269 181.858 39.269ZM172.21 44.1501V16.4648H178.045V30.1549L177.092 34.6548L177.969 39.1546V44.1501H172.21Z" fill="#3C71FF"/>
</svg>
